<svg xmlns="http://www.w3.org/2000/svg" xmlns:xlink="http://www.w3.org/1999/xlink" version="1.1" id="Layer_1" x="0px" y="0px" width="100px" height="100px" viewBox="0 0 100 100" enable-background="new 0 0 100 100" xml:space="preserve">
<polygon fill="#000000" points="48.944,0.374 34.792,14.528 48.944,14.528 "/>
<path fill="#000000" d="M94.703,0H51.23v14.528v2.285h-2.286H34.417v4.879h34.312v2.575h17.885v2.359H68.729v5.73h17.885v2.358  H68.729v5.729h17.885v2.359H68.729v5.73h17.885v2.358H68.729v5.731h17.885v2.359H68.729v5.729h17.885v2.359H68.729v8.09h25.975V0z   M86.613,18.538H54.244v-2.359h32.369V18.538z M86.613,10.449H54.244V8.09h32.369V10.449z"/>
<path fill="#000000" d="M65.584,24.838H20.199L5.297,39.741V100h60.287V24.838z M8.951,96.346V41.628h13.136V28.492H61.93v67.854  H8.951z M19.825,30.379v8.986h-8.985l-0.001,0.001v-0.001h0.001L19.825,30.379z"/>
<rect x="25.125" y="41.018" fill="#000000" width="32.37" height="2.358"/>
<rect x="13.387" y="49.105" fill="#000000" width="44.107" height="2.36"/>
<rect x="13.387" y="57.195" fill="#000000" width="44.107" height="2.359"/>
<rect x="13.387" y="65.284" fill="#000000" width="44.107" height="2.359"/>
<rect x="13.387" y="73.373" fill="#000000" width="44.107" height="2.359"/>
<rect x="13.387" y="81.463" fill="#000000" width="44.107" height="2.359"/>
<rect x="25.125" y="32.928" fill="#000000" width="32.37" height="2.359"/>
<rect x="13.387" y="89.551" fill="#000000" width="44.107" height="2.359"/>
</svg>