<?xml version="1.0" encoding="UTF-8" standalone="no"?>
<!-- Created with Inkscape (http://www.inkscape.org/) -->
<svg
   xmlns:dc="http://purl.org/dc/elements/1.1/"
   xmlns:cc="http://creativecommons.org/ns#"
   xmlns:rdf="http://www.w3.org/1999/02/22-rdf-syntax-ns#"
   xmlns:svg="http://www.w3.org/2000/svg"
   xmlns="http://www.w3.org/2000/svg"
   xmlns:sodipodi="http://sodipodi.sourceforge.net/DTD/sodipodi-0.dtd"
   xmlns:inkscape="http://www.inkscape.org/namespaces/inkscape"
   width="744.09448819"
   height="1052.3622047"
   id="svg2"
   sodipodi:version="0.32"
   inkscape:version="0.46"
   sodipodi:docname="HouseMD.svg"
   inkscape:output_extension="org.inkscape.output.svg.inkscape">
  <defs
     id="defs4">
    <inkscape:perspective
       sodipodi:type="inkscape:persp3d"
       inkscape:vp_x="0 : 526.18109 : 1"
       inkscape:vp_y="0 : 1000 : 0"
       inkscape:vp_z="744.09448 : 526.18109 : 1"
       inkscape:persp3d-origin="372.04724 : 350.78739 : 1"
       id="perspective10" />
    <inkscape:perspective
       sodipodi:type="inkscape:persp3d"
       inkscape:vp_x="0 : 526.18109 : 1"
       inkscape:vp_y="0 : 1000 : 0"
       inkscape:vp_z="744.09448 : 526.18109 : 1"
       inkscape:persp3d-origin="372.04724 : 350.78739 : 1"
       id="perspective2390" />
    <inkscape:perspective
       id="perspective2396"
       inkscape:persp3d-origin="372.04724 : 350.78739 : 1"
       inkscape:vp_z="744.09448 : 526.18109 : 1"
       inkscape:vp_y="0 : 1000 : 0"
       inkscape:vp_x="0 : 526.18109 : 1"
       sodipodi:type="inkscape:persp3d" />
  </defs>
  <sodipodi:namedview
     id="base"
     pagecolor="#ffffff"
     bordercolor="#666666"
     borderopacity="1.0"
     gridtolerance="10000"
     guidetolerance="10"
     objecttolerance="10"
     inkscape:pageopacity="0.0"
     inkscape:pageshadow="2"
     inkscape:zoom="0.49497475"
     inkscape:cx="536.72639"
     inkscape:cy="659.26276"
     inkscape:document-units="px"
     inkscape:current-layer="layer1"
     showgrid="false"
     inkscape:window-width="1280"
     inkscape:window-height="904"
     inkscape:window-x="-4"
     inkscape:window-y="-4" />
  <metadata
     id="metadata7">
    <rdf:RDF>
      <cc:Work
         rdf:about="">
        <dc:format>image/svg+xml</dc:format>
        <dc:type
           rdf:resource="http://purl.org/dc/dcmitype/StillImage" />
      </cc:Work>
    </rdf:RDF>
  </metadata>
  <g
     inkscape:label="Layer 1"
     inkscape:groupmode="layer"
     id="layer1">
    <g
       id="g2445"
       transform="matrix(1.958299,0,0,1.958299,1195.0771,-347.48466)">
      <path
         sodipodi:nodetypes="csssscccssssssscccscccsssssssssscccsssscsccssccssssccssscccssscccccssscccsssscccccccccssscccccssssssssssssssssscccssssscccssssssc"
         id="path2422"
         d="M -415.7834,198.00991 C -418.1581,198.03516 -420.90904,198.15235 -424.31465,198.29116 C -439.52459,198.91112 -439.54858,198.89367 -456.81465,204.69741 C -466.31802,207.89183 -476.73028,211.68497 -479.9709,213.13491 C -484.73106,215.26471 -486.48221,215.6066 -489.0959,214.88491 C -491.18645,214.30768 -494.42599,214.42031 -498.2209,215.19741 L -504.06465,216.41616 L -497.7209,217.13491 C -494.2256,217.54436 -491.52558,218.02457 -491.7209,218.19741 C -491.91623,218.37024 -495.85617,220.18185 -500.4709,222.19741 C -505.08564,224.21297 -515.49345,229.89466 -523.5959,234.82241 C -536.43486,242.63083 -538.91144,243.75994 -542.87715,243.75991 C -547.11077,243.75991 -547.74071,244.14289 -551.9709,248.97866 C -554.47159,251.8373 -556.36322,254.30509 -556.18965,254.47866 C -556.01609,254.65224 -554.23036,254.09949 -552.2209,253.25991 C -547.68427,251.36438 -547.66115,251.58838 -550.9709,264.47866 L -553.3459,273.66616 L -565.0334,286.07241 C -576.45134,298.18288 -578.32075,300.82628 -591.87715,324.25991 C -594.10438,328.10991 -596.81626,332.78146 -597.9084,334.63491 L -599.87715,338.00991 L -595.7209,337.60366 C -593.4353,337.3857 -591.56465,337.57767 -591.56465,338.00991 C -591.56466,338.44217 -593.58965,342.52616 -596.06465,347.10366 C -598.53966,351.68114 -600.56465,355.72466 -600.56465,356.07241 C -600.56466,356.42015 -598.53965,355.82085 -596.06465,354.75991 C -590.77462,352.49233 -590.67378,352.79308 -593.18965,361.44741 C -594.73018,366.74662 -594.70796,367.00565 -592.7834,368.35366 C -591.12538,369.515 -590.90572,370.33826 -591.56465,373.25991 C -592.49302,377.37616 -591.47238,377.79151 -589.1584,374.25991 C -587.51018,371.7444 -585.1541,371.00453 -584.12715,372.66616 C -583.82281,373.15861 -584.96887,377.99612 -586.6584,383.41616 C -588.50754,389.34823 -589.91129,396.24526 -590.1584,400.75991 L -590.56465,408.25991 L -587.81465,405.00991 C -583.15355,399.46187 -582.24748,400.50259 -583.0334,410.50991 C -583.41135,415.32241 -584.59628,421.66428 -585.6584,424.57241 C -588.19855,431.52752 -588.20099,433.1519 -585.6584,431.79116 C -582.87199,430.29992 -582.9061,430.26479 -581.0334,436.00991 C -579.80313,439.7842 -577.60676,445.18919 -575.0334,451.07241 C -576.18421,451.06814 -577.11027,450.88743 -577.50215,450.10366 C -578.74548,447.61701 -579.9405,448.33305 -580.5334,449.60366 L -580.37715,449.97866 C -580.79162,453.17704 -578.43422,465.1265 -576.56465,468.79116 C -573.86467,474.08356 -569.58324,489.21461 -569.5334,493.63491 C -569.51003,495.70799 -568.22471,498.33626 -566.2209,500.85366 C -566.63724,502.40863 -566.95621,503.77857 -566.9709,504.35366 C -567.17699,504.24087 -567.3217,504.17318 -567.37715,504.22866 C -567.72547,504.57696 -566.02413,515.19511 -563.9709,525.57241 C -563.72135,526.8337 -562.50444,528.26861 -561.2834,528.75991 C -555.48954,531.09132 -550.72564,528.96126 -546.56465,522.22866 C -545.96823,521.26366 -545.55986,520.56468 -545.2834,519.88491 C -544.65415,520.37301 -543.98763,520.88815 -543.5334,521.54116 C -543.60298,521.78276 -543.6692,522.00998 -543.75215,522.25991 C -545.72075,528.19152 -545.40977,550.31471 -543.2209,560.25991 C -541.09849,569.90342 -536.47724,581.97376 -532.4709,588.29116 C -527.80537,595.64796 -522.04066,607.65871 -519.56465,615.25991 C -513.82077,631.54912 -505.23122,646.78951 -495.25215,660.82241 L -484.00215,675.75991 C -480.36949,680.97442 -477.89286,683.22826 -471.50215,687.10366 C -462.89456,692.32316 -458.61069,693.00926 -434.06465,696.22866 C -428.67952,696.93496 -422.81271,697.56291 -421.93965,697.63491 C -418.89507,697.88599 -404.19121,694.16236 -396.7834,691.10366 C -379.15994,683.07276 -376.07161,673.91276 -363.37715,663.47866 C -358.81924,659.60736 -355.5069,655.44386 -350.9084,647.85366 C -346.24842,640.83956 -344.0797,632.92891 -340.2209,625.50991 C -337.05271,616.79612 -333.82448,613.00751 -329.62715,605.50991 C -327.75208,602.07242 -324.08933,595.83811 -321.4709,591.63491 C -318.22565,586.42562 -315.73451,580.66806 -313.6584,573.54116 C -308.4879,555.79176 -305.56465,542.06926 -305.56465,535.41616 C -305.56466,533.37532 -305.12112,529.63232 -304.50215,525.54116 C -303.57798,526.44048 -303.42592,527.66536 -303.1584,528.85366 C -302.3546,529.84386 -301.18599,530.68911 -300.0334,531.38491 C -295.64532,533.89272 -292.10966,533.46116 -287.68965,529.85366 C -284.03216,526.86856 -284.12145,527.50546 -284.81465,508.97866 C -284.91746,506.22996 -283.98345,504.69806 -279.18965,499.85366 C -273.59726,494.20226 -273.39095,493.86966 -272.50215,486.79116 C -271.51486,478.92886 -271.6394,472.76321 -272.7834,472.75991 C -270.28669,470.28822 -269.00214,470.14511 -267.0334,466.54116 C -265.5936,465.10134 -262.56005,447.04146 -263.12715,443.25991 L -264.00215,435.19741 C -264.44996,433.41304 -264.0024,431.45621 -262.5959,429.07241 L -260.5334,425.57241 L -264.50215,418.38491 L -268.4709,411.19741 L -265.9709,406.97866 C -264.59,404.66303 -263.2341,402.75994 -262.9709,402.75991 C -262.7077,402.75991 -261.3891,403.49664 -260.0334,404.38491 C -256.9739,406.38958 -256.9881,405.57775 -260.0959,399.25991 C -261.7768,395.84287 -262.55835,392.55825 -262.56465,388.88491 L -262.56465,383.50991 L -259.56465,384.13491 L -256.56465,384.72866 L -256.56465,378.22866 C -256.56466,372.52498 -257.11285,370.62835 -261.06465,362.75991 C -263.53966,357.83189 -265.56465,353.35953 -265.56465,352.79116 C -265.56466,352.16167 -264.19665,352.30658 -262.06465,353.19741 C -260.13966,354.00173 -258.56465,354.37914 -258.56465,354.04116 C -258.56466,353.70316 -261.0948,348.74692 -264.1584,343.00991 C -267.222,337.27291 -269.51025,332.36176 -269.25215,332.10366 C -268.99406,331.84557 -266.87565,332.13764 -264.56465,332.75991 C -262.25356,333.38221 -260.2303,333.73805 -260.0334,333.54116 C -259.8365,333.34428 -261.8859,328.93045 -264.5959,323.72866 C -267.306,318.52689 -269.5161,313.92977 -269.5334,313.50991 C -269.5508,313.09003 -267.9631,313.42751 -265.9709,314.25991 C -263.9787,315.09229 -262.15295,315.75994 -261.93965,315.75991 C -261.72626,315.75991 -263.5367,311.79425 -265.9709,306.94741 C -269.8573,299.20908 -271.6524,297.01069 -280.5334,288.82241 C -286.0959,283.69377 -290.4138,279.29654 -290.1584,279.04116 C -289.903,278.78578 -286.6831,280.16374 -282.9709,282.13491 C -279.2588,284.10608 -276.0945,285.63775 -275.9709,285.50991 C -275.8473,285.38206 -276.67675,281.13895 -277.81465,276.07241 L -279.9084,266.85366 L -287.8459,263.57241 C -292.20955,261.76394 -295.99033,259.69413 -296.2834,258.97866 C -296.57649,258.26317 -295.79885,256.57566 -294.5334,255.22866 C -293.26795,253.88164 -292.41476,252.75994 -292.6584,252.75991 C -293.26601,252.75991 -316.41182,246.96156 -318.7209,246.22866 C -320.04591,245.80812 -320.56465,244.67919 -320.56465,242.29116 C -320.56466,238.98222 -320.6498,238.90819 -327.5334,237.13491 L -334.5334,235.35366 L -335.12715,231.29116 C -335.67855,227.66412 -336.51202,226.70261 -343.31465,221.75991 C -347.47799,218.73491 -353.17258,214.58018 -355.9709,212.50991 C -358.76923,210.43963 -361.61573,208.9412 -362.2834,209.19741 C -362.95108,209.45362 -366.20216,210.23453 -369.50215,210.91616 C -375.35861,212.12579 -375.5288,212.07999 -377.4084,209.69741 C -383.20907,202.34452 -382.49676,202.72757 -396.0959,200.13491 C -404.80381,198.47474 -408.65932,197.93416 -415.7834,198.00991 z"
         style="fill:#ffffff" />
      <path
         sodipodi:nodetypes="cccscccssscccscccsscccssssssscccccccsssssssscccssssccssscccccsccsssccccccsccssssccccccsccsssssssssssscccsssssscccsssssssssssssscccsccssssscccscccccsssssssssccssssssssccssssssssssssssscccsssssssssssssccssssssccsssscccssssssccssssssssssssssssssssssccssssccccssssscccsssssssssssccssccsssscccsssssssssscccscccssssssscccsssssssssscccssssscccssssssssssssssssssccccsssccccccccssssssscccssssscccccssscccccsssssssssssssssssscccsssccsssssssscccssssssscccsssscccsssscccssssscccccsccsssssssssssscccsssccccccsscccscccssccccccsssssssssssc"
         id="path2443"
         d="M -427.56468,698.70319 L -427.56468,698.70319 z M -434.06468,695.15739 C -458.65398,692.28709 -462.89548,691.25339 -471.50308,686.03389 C -477.89378,682.15859 -480.36488,679.91769 -483.99758,674.70319 L -488.52578,668.20319 L -486.29518,666.47419 C -481.09728,662.44519 -458.56468,653.64339 -458.56468,655.64199 C -458.56468,655.99959 -460.81468,658.00809 -463.56468,660.10529 C -466.31468,662.20249 -468.56468,664.20969 -468.56468,664.56589 C -468.56468,666.11399 -456.63988,669.70319 -451.49668,669.70319 L -446.00758,669.70319 L -444.18698,662.63569 C -443.18558,658.74859 -442.07728,655.85729 -441.72388,656.21059 C -441.37058,656.56399 -440.17768,659.40679 -439.07298,662.52809 L -437.06458,668.20319 L -431.06458,668.76199 C -424.29578,669.39249 -423.91238,669.11699 -422.98028,662.95319 C -422.62678,660.61569 -421.99888,658.70319 -421.58498,658.70319 C -421.17108,658.70319 -419.44858,661.79809 -417.75728,665.58069 L -414.68208,672.45809 L -409.14188,673.15029 C -402.89218,673.93109 -402.55198,673.77119 -394.56028,666.29589 C -390.91608,662.88719 -389.53888,660.90959 -389.88568,659.58339 C -390.15618,658.54929 -390.08198,657.70989 -389.72098,657.71809 C -389.35998,657.72629 -385.16528,660.63619 -380.39948,664.18459 C -373.48068,669.33589 -371.83958,671.03869 -372.25668,672.63379 C -373.12068,675.93749 -387.71608,686.30589 -396.75858,690.03949 C -404.16638,693.09819 -418.88648,696.91979 -421.92158,696.57239 C -422.55028,696.50039 -428.01468,695.86369 -434.06468,695.15739 z M -377.56468,663.74359 C -380.58968,661.62149 -385.16988,657.70679 -387.74288,655.04429 L -392.42118,650.20319 L -392.70368,640.70319 L -392.98618,631.20319 L -388.88508,630.65059 C -383.29408,629.89709 -373.91628,623.31279 -371.39478,618.37029 C -369.78658,615.21789 -369.02258,614.61439 -367.24418,615.09129 C -366.04548,615.41289 -364.50218,615.68209 -363.81468,615.68959 C -362.96208,615.69889 -362.56468,617.51999 -362.56468,621.41749 C -362.56468,626.38039 -362.37738,626.93919 -361.14048,625.66749 C -358.34198,622.78999 -351.59118,609.14829 -351.50838,606.20319 C -351.46198,604.55319 -351.09588,602.36889 -350.69478,601.34909 C -350.01888,599.63079 -349.72078,599.70089 -346.62358,602.30699 C -344.78558,603.85359 -341.3542,607.15909 -338.9983,609.65259 L -334.71483,614.18619 L -340.20875,624.42849 C -343.23041,630.06179 -345.45678,635.06869 -345.15628,635.55489 C -344.85578,636.04119 -347.43218,641.09739 -350.88168,646.79109 C -355.48018,654.38119 -358.81208,658.55189 -363.36998,662.42319 C -366.78908,665.32719 -370.14408,667.68039 -370.82558,667.65249 C -371.50708,667.62469 -374.53968,665.86559 -377.56468,663.74359 z M -495.24618,659.74909 C -497.80948,657.41639 -508.56468,638.60389 -508.56468,636.45319 C -508.56468,636.14609 -504.03788,632.90989 -498.50518,629.26159 C -488.64258,622.75819 -488.41268,622.66689 -486.75518,624.59629 C -484.93678,626.71319 -467.71148,630.70319 -460.39158,630.70319 L -456.49698,630.70319 L -456.78078,641.25159 L -457.06468,651.79999 L -473.56468,657.24389 C -482.63968,660.23809 -490.51468,662.67809 -491.06468,662.66619 C -491.61468,662.65429 -493.49638,661.34159 -495.24618,659.74909 z M -450.56468,651.70319 C -450.56468,651.15319 -451.26128,650.70319 -452.11278,650.70319 C -453.42168,650.70319 -453.63538,649.09809 -453.49518,640.32189 C -453.40398,634.61209 -453.04478,629.50399 -452.69698,628.97049 C -451.40748,626.99239 -440.37348,623.70319 -435.02708,623.70319 L -429.56468,623.70319 L -429.56468,631.06359 C -429.56468,635.11189 -429.84288,640.45419 -430.18298,642.93549 L -430.80138,647.44689 L -436.65788,647.97789 C -440.04128,648.28469 -443.94718,649.39449 -445.90748,650.60609 C -449.70698,652.95429 -450.56468,653.15639 -450.56468,651.70319 z M -420.84428,651.11569 C -422.37308,650.28659 -423.35908,649.17959 -423.03528,648.65569 C -422.71148,648.13179 -423.37318,647.70319 -424.50558,647.70319 C -426.46608,647.70319 -426.56468,647.14739 -426.56468,636.09619 C -426.56468,625.43709 -426.42168,624.54739 -424.81468,625.20199 C -418.87268,627.62209 -414.02918,628.86609 -406.09548,630.00989 L -397.12628,631.30289 L -396.42488,634.73219 C -396.03908,636.61839 -395.57528,640.64599 -395.39408,643.68239 L -395.06468,649.20319 L -400.68928,648.86899 C -404.90568,648.61839 -407.33688,649.05649 -410.39948,650.61899 C -415.19838,653.06719 -417.08078,653.15669 -420.84428,651.11569 z M -514.90878,625.95319 C -516.21668,623.34069 -518.31278,618.05319 -519.56678,614.20319 C -522.04278,606.60179 -527.77678,594.59179 -532.44238,587.23499 C -536.44868,580.91759 -541.08378,568.84669 -543.20618,559.20319 C -545.39508,549.25779 -545.70218,527.12429 -543.73358,521.19269 C -542.55438,517.63949 -542.69688,515.38399 -544.98358,501.40999 C -548.39428,480.56819 -548.15898,477.75399 -544.05778,490.33539 C -541.29628,498.80719 -539.56508,502.08459 -533.49368,510.33539 C -529.49998,515.76269 -524.34838,522.45319 -522.04558,525.20319 C -515.94148,532.49279 -510.86838,542.34779 -510.06268,548.48079 C -509.44278,553.19959 -509.64438,554.11899 -511.96698,557.16409 C -513.76858,559.52619 -514.56468,561.80209 -514.56468,564.59119 C -514.56468,568.45119 -514.41408,568.63979 -510.81468,569.28929 C -505.31138,570.28229 -505.16728,570.59289 -508.75608,573.72629 L -512.02698,576.58209 L -509.98088,578.89269 C -508.85548,580.16349 -507.08798,583.16019 -506.05318,585.55219 C -504.24338,589.73519 -504.03608,589.87929 -500.61818,589.32859 C -493.94768,588.25379 -465.75748,573.56679 -459.84138,568.08389 C -456.54548,565.02939 -455.96498,565.09059 -450.56468,569.06249 C -445.43728,572.83359 -443.06568,578.56459 -442.13338,589.43639 C -441.61748,595.45189 -441.69418,595.71799 -444.33168,597.05699 C -446.17468,597.99259 -452.27478,598.60469 -463.06468,598.93659 L -479.06468,599.42879 L -489.31468,604.57509 C -494.95218,607.40559 -499.56468,610.14079 -499.56468,610.65329 C -499.56468,613.09619 -496.89108,612.53099 -490.50748,608.73859 C -486.67588,606.46229 -483.16258,604.83369 -482.70008,605.11949 C -482.23768,605.40529 -481.00548,604.99289 -479.96198,604.20299 C -478.53288,603.12129 -474.68728,602.75899 -464.37998,602.73499 C -450.27118,602.70219 -439.12618,604.32719 -433.49788,607.23769 C -429.74318,609.17929 -424.56168,608.34009 -419.10658,604.90659 C -415.51478,602.64599 -413.86378,602.36929 -401.26208,601.91609 C -392.33668,601.59509 -384.87078,601.86429 -380.36418,602.66969 C -373.86718,603.83079 -373.15878,603.77989 -370.70868,601.97549 C -365.16778,597.89509 -363.81148,597.52419 -360.56658,599.20219 C -357.75958,600.65379 -357.58988,601.05459 -358.12048,604.98259 C -359.20728,613.02819 -359.55748,613.94079 -361.35998,613.42349 C -384.74568,606.71169 -388.11128,606.35659 -405.37238,608.77999 C -422.52058,611.18749 -427.93028,611.31919 -453.56468,609.95309 L -473.06468,608.91389 L -480.56468,613.74409 C -489.06758,619.22019 -510.04158,630.70319 -511.54088,630.70319 C -512.08538,630.70319 -513.60098,628.56569 -514.90878,625.95319 z M -341.31463,600.80289 C -348.01918,591.71249 -348.56468,590.59979 -348.56468,586.01239 C -348.56468,582.01409 -348.07968,580.59619 -346.06468,578.70319 C -342.94921,575.77639 -342.95252,574.84469 -346.10048,568.63249 C -348.79028,563.32429 -348.65118,561.70319 -345.50558,561.70319 C -343.79844,561.70319 -343.56463,560.97529 -343.56463,555.66039 C -343.56463,549.88669 -343.7631,549.40539 -348.02088,544.85349 L -352.47708,540.08939 L -338.51713,528.73569 C -326.85496,519.25089 -323.99999,516.37969 -321.1722,511.29259 C -316.45391,502.80459 -311.70879,491.41299 -309.61421,483.54549 L -307.84172,476.88769 L -310.75983,473.96959 L -313.67794,471.05149 L -310.12129,456.92821 C -308.16513,449.16043 -306.56463,441.79208 -306.56463,440.5541 C -306.56463,437.27318 -305.18966,439.31307 -302.75689,446.20323 C -300.8342,451.64872 -300.62157,454.55988 -300.45611,477.70319 C -300.28339,501.86389 -300.41276,503.85389 -302.91922,515.59079 C -304.3742,522.40389 -305.56463,530.84509 -305.56463,534.34899 C -305.56463,541.00209 -308.47008,554.71459 -313.64059,572.46399 C -315.7167,579.59089 -318.20177,585.35189 -321.44703,590.56119 C -324.06546,594.76429 -327.74197,601.01569 -329.61705,604.45319 C -331.49212,607.89069 -333.25991,610.68739 -333.54545,610.66799 C -333.831,610.64859 -337.32713,606.20929 -341.31463,600.80289 z M -381.56468,598.70319 C -382.93968,598.26289 -389.40378,597.85769 -395.92928,597.80289 C -406.79578,597.71159 -408.20698,597.47839 -412.70348,595.03119 C -419.45268,591.35769 -419.53268,590.81529 -415.99718,572.67959 C -415.72658,571.29159 -413.94608,568.91189 -412.04048,567.39139 C -407.98948,564.15909 -409.10118,563.77879 -393.56468,573.71069 C -387.78968,577.40249 -379.91468,582.12209 -376.06468,584.19889 C -367.63038,588.74859 -367.97388,588.42809 -367.22328,592.44629 C -366.66338,595.44329 -366.91598,595.84179 -370.55118,597.69629 C -374.66538,599.79519 -377.37988,600.04339 -381.56468,598.70319 z M -433.21218,592.55909 C -436.67388,590.00109 -437.64368,588.48229 -439.07658,583.37539 C -441.35368,575.25999 -447.45858,566.44389 -453.58608,562.42239 C -457.61928,559.77539 -459.03078,558.00199 -461.52788,552.44439 C -464.92568,544.88219 -465.18688,542.93649 -463.17418,540.18389 C -461.95408,538.51529 -461.44458,538.43689 -459.01478,539.54399 C -456.76748,540.56789 -456.08398,540.56049 -455.38628,539.50439 C -454.71788,538.49269 -454.19788,538.64809 -453.04858,540.20319 C -447.53218,547.66749 -441.97478,550.70319 -433.82698,550.70319 C -427.32568,550.70319 -425.83108,549.93779 -417.87448,542.53329 C -412.46638,537.50039 -410.56468,536.64319 -410.56468,539.23839 C -410.56468,540.44629 -410.15228,540.55289 -408.63038,539.73839 C -406.16598,538.41949 -402.56468,538.39859 -402.56468,539.70319 C -402.56468,540.25319 -401.48128,540.70319 -400.15718,540.70319 C -397.93948,540.70319 -397.71818,540.24999 -397.34898,534.95319 C -396.69268,525.53589 -400.53218,519.70319 -407.38758,519.70319 C -410.91588,519.70319 -411.20668,518.62259 -411.96178,502.70319 L -412.45988,492.20319 L -411.09828,501.20319 C -410.34928,506.15319 -409.69788,510.94379 -409.65058,511.84899 C -409.60328,512.75419 -407.42718,514.87819 -404.81468,516.56899 C -402.20218,518.25989 -398.99318,521.23319 -397.68368,523.17629 C -395.45788,526.47899 -395.33328,527.39529 -395.77108,537.24069 C -396.14858,545.72739 -396.62928,548.29939 -398.24718,550.48769 C -399.35138,551.98129 -401.04108,554.72389 -402.00218,556.58249 C -403.69668,559.85929 -403.68628,560.04749 -401.65718,562.79199 C -398.68498,566.81199 -399.02538,567.06879 -403.54478,564.21579 C -405.73388,562.83389 -408.09638,561.70989 -408.79478,561.71809 C -409.49318,561.72629 -411.71998,563.18879 -413.74308,564.96809 C -417.13528,567.95149 -417.62928,569.11799 -420.09208,579.95849 C -422.27428,589.56429 -423.22628,592.07849 -425.29848,593.70849 C -426.69318,594.80559 -428.11118,595.68539 -428.44948,595.66359 C -428.78778,595.64179 -430.93098,594.24479 -433.21218,592.55909 z M -360.97628,594.19789 C -362.59108,593.51739 -364.59528,591.48629 -365.47628,589.63739 C -366.99498,586.45019 -368.48168,585.38669 -386.44068,574.64179 C -391.42198,571.66149 -389.53828,571.18079 -383.91408,573.99699 C -381.24688,575.33259 -375.91468,577.42199 -372.06468,578.64019 C -366.38808,580.43629 -364.26108,581.73369 -360.81468,585.50179 C -356.94638,589.73109 -355.39898,593.93259 -357.31468,595.00509 C -357.72718,595.23599 -359.37488,594.87279 -360.97628,594.19789 z M -300.03243,530.32879 C -302.75536,528.77259 -303.56463,527.66779 -303.56463,525.50669 C -303.56463,523.18299 -303.13679,522.70319 -301.06463,522.70319 C -299.68963,522.70319 -298.56463,523.09859 -298.56463,523.58189 C -298.56463,524.81999 -292.87358,527.03579 -291.27207,526.42119 C -288.93241,525.52339 -287.39424,517.83639 -287.68928,508.51629 L -287.97191,499.58869 L -283.34441,495.63329 C -278.41553,491.42019 -275.31446,484.70059 -275.71954,479.11109 C -275.92954,476.21359 -274.13822,471.70139 -272.77945,471.70519 C -271.6354,471.70839 -271.51287,477.85429 -272.5001,485.71659 C -273.38891,492.79509 -273.56984,493.15049 -279.16223,498.80189 C -283.9561,503.64629 -284.89025,505.15839 -284.78742,507.90709 C -284.09428,526.43389 -284.00686,525.79949 -287.66434,528.78459 C -292.08439,532.39209 -295.64434,532.83649 -300.03243,530.32879 z M -561.28468,527.68309 C -562.50578,527.19179 -563.70898,525.75779 -563.95858,524.49649 C -566.01178,514.11919 -567.69908,503.50439 -567.35078,503.15609 C -567.11818,502.92349 -565.40428,504.30519 -563.54198,506.22659 C -560.26488,509.60769 -560.19208,509.85549 -561.27928,513.92869 C -562.47498,518.40839 -561.44438,522.19419 -559.24698,521.39449 C -558.59668,521.15779 -557.31458,521.61639 -556.39778,522.41339 C -553.86238,524.61789 -550.88258,522.55259 -550.37938,518.24209 C -549.85458,513.74709 -551.11278,511.42509 -553.63888,512.22679 C -555.16728,512.71189 -555.56468,512.35269 -555.56468,510.48619 C -555.56468,508.88949 -556.60808,507.52419 -558.81468,506.23369 C -564.62738,502.83409 -569.47768,496.64339 -569.52358,492.56509 C -569.57348,488.14459 -573.85928,473.00609 -576.55928,467.71367 C -578.53098,463.84883 -581.08018,450.74822 -580.30968,448.4403 C -579.60208,446.32098 -571.48178,464.83558 -569.88758,472.20319 C -569.05448,476.05319 -568.41608,481.69519 -568.46888,484.74089 C -568.55148,489.50509 -568.15148,490.76209 -565.60538,493.74089 C -562.65178,497.19639 -562.64588,497.19819 -562.60528,494.63469 C -562.58288,493.22209 -563.26668,489.70219 -564.12478,486.81279 C -566.61108,478.44029 -565.56348,476.69449 -562.09708,483.43379 C -560.46498,486.60699 -556.56538,492.20819 -553.43138,495.88099 C -548.41448,501.76039 -547.53238,503.46129 -546.05348,510.10859 C -544.39488,517.56369 -544.40108,517.70249 -546.54068,521.16439 C -550.70168,527.89709 -555.49088,530.01449 -561.28468,527.68309 z M -462.08608,519.96299 C -461.24148,514.28999 -460.38148,513.07229 -456.78248,512.45339 C -455.28768,512.19639 -453.27718,511.64929 -452.31468,511.23769 C -450.83308,510.60409 -450.56468,511.04259 -450.56468,514.09619 C -450.56468,516.08009 -450.96938,517.70319 -451.46418,517.70319 C -451.95888,517.70319 -454.71068,519.28259 -457.57918,521.21299 L -462.79468,524.72279 L -462.08608,519.96299 z M -301.87149,519.95319 C -303.24572,517.52749 -288.39026,468.80983 -283.42326,459.45323 C -282.74937,458.18379 -281.25959,457.70323 -277.99806,457.70323 C -274.95559,457.70323 -273.31866,457.22581 -272.93523,456.22663 C -272.62359,455.4145 -273.0199,450.89914 -273.81592,446.1925 C -274.61194,441.48587 -274.99354,437.47541 -274.66393,437.28036 C -274.33431,437.08532 -271.74526,437.15379 -268.91048,437.43251 L -263.75632,437.93927 L -263.12065,442.17826 C -262.55357,445.95979 -265.57718,464.04911 -267.017,465.48893 C -267.27701,465.74894 -268.02883,464.77853 -268.6877,463.33246 C -269.34658,461.88638 -270.19299,460.70323 -270.56861,460.70323 C -270.94423,460.70323 -273.14483,462.94853 -275.45882,465.6928 C -278.69575,469.53159 -279.86804,471.92319 -280.54172,476.06249 C -281.96294,484.79479 -283.54368,489.68229 -285.61738,491.75599 C -286.68837,492.82699 -287.56463,494.35279 -287.56463,495.14669 C -287.56463,495.94059 -288.92742,497.39519 -290.59304,498.37909 C -293.10884,499.86519 -293.5219,500.62129 -293.03331,502.84579 C -292.62296,504.71419 -293.37009,507.35589 -295.5049,511.58489 C -297.18775,514.91859 -298.56463,518.33399 -298.56463,519.17469 C -298.56463,520.72789 -301.0951,521.32369 -301.87149,519.95319 z M -446.56468,497.42889 C -446.56468,493.79469 -446.12998,490.55259 -445.59868,490.22429 C -444.99178,489.84919 -444.85788,492.15019 -445.23828,496.41529 C -446.02848,505.27389 -446.56468,505.68369 -446.56468,497.42889 z M -556.35898,486.88139 C -563.12578,476.51349 -576.97498,447.3445 -581.01408,434.95323 C -582.88678,429.20808 -582.84398,429.24717 -585.63038,430.73841 C -588.17298,432.09916 -588.17368,430.44585 -585.63358,423.49074 C -584.57138,420.58261 -583.39318,414.26573 -583.01528,409.45323 C -582.22938,399.44588 -583.14158,398.39618 -587.80268,403.94422 L -590.54068,407.20323 L -590.13018,399.70323 C -589.88308,395.18855 -588.49688,388.28067 -586.64778,382.3486 C -584.95828,376.92855 -583.82498,372.09105 -584.12928,371.5986 C -585.15628,369.93696 -587.50838,370.68772 -589.15658,373.20323 C -591.47058,376.7348 -592.48968,376.30475 -591.56128,372.1885 C -590.90238,369.26684 -591.10518,368.43803 -592.76318,367.27669 C -594.68778,365.92868 -594.70178,365.68672 -593.16128,360.38751 C -590.64538,351.7332 -590.77458,351.43565 -596.06468,353.70323 C -598.53968,354.76414 -600.56468,355.34763 -600.56468,354.99989 C -600.56468,354.65214 -598.53968,350.62241 -596.06468,346.04493 C -593.58968,341.46744 -591.56468,337.36856 -591.56468,336.9363 C -591.56468,336.50405 -593.43468,336.32872 -595.72028,336.54668 L -599.87598,336.94299 L -597.89028,333.57311 C -596.79808,331.71968 -594.08228,327.05323 -591.85508,323.20323 C -578.29868,299.76957 -576.43198,297.11291 -565.01408,285.00244 L -553.33118,272.61086 L -550.96798,263.40704 C -547.65818,250.51678 -547.68158,250.30741 -552.21818,252.20294 C -554.22758,253.04254 -556.01378,253.58747 -556.18728,253.41389 C -556.36088,253.24032 -554.45688,250.75941 -551.95618,247.90077 C -547.72598,243.065 -547.09278,242.70323 -542.85918,242.70323 C -538.89348,242.70323 -536.41608,241.55209 -523.57718,233.74367 C -515.47468,228.81592 -505.06978,223.13502 -500.45508,221.11946 C -495.84028,219.1039 -491.90488,217.3134 -491.70948,217.14057 C -491.51418,216.96774 -494.21418,216.49133 -497.70948,216.08188 L -504.06468,215.33742 L -498.19188,214.13483 C -494.39698,213.35774 -491.17448,213.2483 -489.08388,213.82553 C -486.47018,214.5472 -484.71678,214.21238 -479.95668,212.08258 C -476.71608,210.63265 -466.28918,206.83274 -456.78578,203.63832 C -439.51968,197.83458 -439.49568,197.82983 -424.28578,197.20987 C -410.66338,196.65461 -407.70208,196.84923 -396.09148,199.06279 C -382.49238,201.65548 -383.20268,201.29131 -377.40208,208.6442 C -375.52248,211.02676 -375.33278,211.05551 -369.47638,209.84588 C -366.17638,209.16427 -362.93008,208.39697 -362.26248,208.14076 C -361.59478,207.88455 -358.75898,209.3688 -355.96058,211.43908 C -353.16228,213.50937 -347.46638,217.67823 -343.30308,220.70323 C -336.50045,225.6459 -335.67122,226.61222 -335.11983,230.23926 L -334.50626,234.27529 L -327.53544,236.07101 C -320.65183,237.84428 -320.56463,237.90866 -320.56463,241.2176 C -320.56463,243.60563 -320.0304,244.73801 -318.7054,245.15855 C -316.39632,245.89142 -293.26659,251.70323 -292.65899,251.70323 C -292.41535,251.70323 -293.25137,252.80533 -294.51683,254.15235 C -295.78228,255.49936 -296.57786,257.18686 -296.28478,257.90235 C -295.9917,258.61783 -292.18166,260.68289 -287.81802,262.49136 L -279.88413,265.7795 L -277.81537,274.99136 C -276.67755,280.05789 -275.84776,284.30783 -275.9714,284.43568 C -276.09503,284.56352 -279.23342,283.05535 -282.94558,281.08418 C -286.65775,279.11301 -289.90392,277.70918 -290.15929,277.96456 C -290.41466,278.21993 -286.07245,282.62503 -280.50992,287.75367 C -271.6289,295.94196 -269.85682,298.15252 -265.9704,305.89085 C -263.53619,310.73766 -261.71912,314.70323 -261.93247,314.70323 C -262.14582,314.70323 -263.95034,314.02219 -265.94251,313.18981 C -267.93467,312.35743 -269.55043,312.01993 -269.53306,312.43981 C -269.5157,312.85969 -267.28419,317.45922 -264.57415,322.66099 C -261.86411,327.86275 -259.80789,332.27983 -260.00478,332.47671 C -260.20166,332.67359 -262.25359,332.32553 -264.56463,331.70323 C -266.87567,331.08093 -268.97768,330.78295 -269.23577,331.04104 C -269.49386,331.29913 -267.19844,336.2042 -264.13483,341.9412 C -261.07122,347.67819 -258.56463,352.64864 -258.56463,352.98664 C -258.56463,353.32463 -260.13963,352.9431 -262.06463,352.13878 C -264.19663,351.24798 -265.56463,351.0803 -265.56463,351.70979 C -265.56463,352.27816 -263.53963,356.77521 -261.06463,361.70323 C -257.11288,369.57164 -256.56463,371.45457 -256.56463,377.15825 L -256.56463,383.65323 L -259.56463,383.05323 L -262.56463,382.45323 L -262.55549,387.82823 C -262.54924,391.50154 -261.76766,394.78619 -260.08676,398.20323 C -256.97892,404.52104 -256.96994,405.32291 -260.02945,403.31824 C -261.3851,402.42998 -262.70959,401.70323 -262.97277,401.70323 C -263.23594,401.70323 -264.58108,403.59783 -265.96195,405.91346 L -268.47262,410.12369 L -264.49874,417.32259 L -260.52486,424.5215 L -262.58759,428.01757 C -263.99408,430.40139 -264.44136,432.34619 -263.99351,434.13056 L -263.33671,436.74749 L -269.20067,436.09824 C -272.42585,435.74116 -275.50032,435.3937 -276.03283,435.32611 C -277.0664,435.19493 -276.95066,438.34719 -275.54432,448.6302 C -275.06088,452.16503 -274.89424,455.42753 -275.174,455.8802 C -275.45377,456.33287 -277.40101,456.70323 -279.5012,456.70323 C -281.6014,456.70323 -283.76591,457.26573 -284.31124,457.95323 C -284.85656,458.64073 -287.89575,465.61573 -291.06499,473.45319 C -294.23423,481.29069 -297.10566,487.70349 -297.44594,487.70379 C -297.78622,487.70409 -297.69254,480.06049 -297.23776,470.71789 L -296.4109,453.73132 L -301.02106,432.79453 C -303.55665,421.27929 -306.76027,408.56047 -308.14021,404.53048 C -310.56122,397.46013 -310.60907,396.83504 -309.50479,386.70177 C -308.87537,380.92597 -308.51884,375.22917 -308.71251,374.04223 C -309.06395,371.88831 -309.07662,371.88962 -315.29831,374.72461 C -318.72683,376.28686 -321.7851,377.15552 -322.09447,376.65495 C -322.40383,376.15439 -322.59027,369.1053 -322.50878,360.99032 L -322.36061,346.2358 L -325.96262,346.54613 L -329.56463,346.85647 L -329.56463,339.92907 C -329.56463,332.45509 -331.03876,326.70323 -332.95425,326.70323 C -333.61093,326.70323 -336.1356,328.72823 -338.56463,331.20323 C -340.99366,333.67823 -343.30129,335.70323 -343.69269,335.70323 C -344.0841,335.70323 -344.71938,331.25931 -345.10448,325.82786 L -345.80458,315.95248 L -352.63198,307.97434 L -359.45928,299.99619 L -365.80588,299.82159 C -371.52828,299.66416 -373.30758,300.17166 -383.89748,304.9819 C -393.33068,309.2667 -397.09728,311.6343 -403.03268,317.01002 C -407.09728,320.69129 -410.67978,323.70323 -410.99368,323.70323 C -411.30768,323.70323 -411.56468,320.32823 -411.56468,316.20323 C -411.56468,312.07823 -411.74158,308.70323 -411.95778,308.70323 C -412.17398,308.70323 -418.07208,311.40323 -425.06468,314.70323 C -432.05718,318.00323 -437.90238,320.70323 -438.05398,320.70323 C -438.20558,320.70323 -438.64588,317.32823 -439.03248,313.20323 C -439.41898,309.07823 -440.07958,305.70323 -440.50038,305.70323 C -440.92128,305.70323 -448.87038,307.45841 -458.16508,309.60364 C -467.45988,311.74886 -480.68968,314.02904 -487.56468,314.6707 C -494.43968,315.31236 -500.99128,316.01922 -502.12398,316.24149 C -503.25658,316.46376 -508.07828,319.58358 -512.83888,323.17442 C -517.59948,326.76527 -521.74728,329.70323 -522.05618,329.70323 C -522.36508,329.70323 -521.03078,327.34674 -519.09118,324.46658 C -517.15158,321.58642 -515.56468,318.96268 -515.56468,318.63604 C -515.56468,318.30941 -518.33748,318.61357 -521.72648,319.31196 C -527.24298,320.44877 -528.54368,321.23139 -534.14698,326.78486 C -539.47088,332.06137 -541.01418,334.46115 -544.47928,342.85039 L -548.55278,352.71282 L -548.64398,376.45802 C -548.71248,394.29669 -549.19898,403.18819 -550.59978,412.20323 C -553.58578,431.42074 -553.73328,455.48838 -551.00418,478.19829 C -549.74868,488.64569 -548.84498,497.31699 -548.99598,497.46789 C -549.14688,497.61889 -552.46028,492.85489 -556.35898,486.88139 z M -365.06468,480.21379 C -377.70468,477.85019 -378.27088,476.83759 -366.99218,476.76659 C -357.74318,476.70839 -356.46338,476.45609 -351.33718,473.67959 C -344.45639,469.95279 -338.56463,463.67416 -338.56463,460.06838 C -338.56463,455.98984 -342.19862,450.97913 -346.08738,449.69574 C -350.21768,448.3326 -351.12928,448.77632 -351.87678,452.5138 C -352.70108,456.63534 -357.77638,461.70323 -361.07968,461.70323 C -364.97668,461.70323 -371.32938,457.81996 -373.69558,453.99132 C -375.99178,450.27595 -378.53148,449.82689 -384.09678,452.1522 C -387.63478,453.63048 -388.23218,455.20526 -387.66558,461.56022 L -387.45538,463.91721 L -390.41438,461.81022 C -392.56328,460.28008 -394.88298,459.70323 -398.88718,459.70323 C -406.67588,459.70323 -407.56468,460.2263 -407.56468,464.81022 C -407.56468,468.80541 -408.30978,469.55809 -410.29738,467.57045 C -411.91618,465.95168 -414.33378,467.18431 -414.85088,469.89209 C -415.09368,471.16319 -415.35848,470.17819 -415.43948,467.70323 C -415.69318,459.9461 -416.71088,455.70323 -418.31788,455.70323 C -419.51458,455.70323 -419.56908,455.41354 -418.59368,454.23822 C -417.61018,453.0532 -418.00058,451.68475 -420.63618,447.07821 L -423.89448,441.38322 L -417.26668,442.00213 C -412.08638,442.48587 -409.39538,442.19321 -404.94518,440.66214 C -401.46248,439.46391 -396.59938,438.70323 -392.42178,438.70323 C -386.19918,438.70323 -384.86878,438.30319 -377.45668,434.20323 C -372.98218,431.72823 -369.02298,429.70323 -368.65858,429.70323 C -368.29408,429.70323 -367.24748,430.97005 -366.33288,432.51839 L -364.66998,435.33356 L -356.86728,434.44222 C -352.57578,433.95198 -344.56463,433.79285 -339.06463,434.0886 C -330.22331,434.56403 -328.4325,434.36501 -323.60903,432.37099 C -318.3669,430.20389 -318.11118,429.92171 -317.07404,425.15944 C -316.13703,420.85699 -316.30053,419.22782 -318.31348,412.80859 C -319.58883,408.74153 -321.51022,402.13789 -322.58323,398.13383 L -324.53415,390.85372 L -322.20484,386.7529 C -320.3438,383.47647 -312.17041,376.70323 -310.07773,376.70323 C -309.84814,376.70323 -310.3089,378.84073 -311.10164,381.45323 C -312.81591,387.10266 -312.93687,395.76156 -311.42643,404.70323 C -310.82253,408.27823 -310.4292,418.60727 -310.55235,427.65666 C -310.75347,442.43493 -311.07697,445.18385 -313.72976,454.65666 C -316.59674,464.89432 -317.33008,466.51657 -321.39753,471.61899 L -323.32327,474.03469 L -328.03405,471.27399 L -332.74483,468.51332 L -336.45577,471.49549 C -341.0462,475.18449 -353.88778,481.73509 -356.28968,481.61299 C -357.26588,481.56329 -361.21468,480.93369 -365.06468,480.21379 z M -508.43978,479.32999 C -510.29608,478.65839 -513.98628,475.95719 -516.64028,473.32739 C -520.47708,469.52549 -521.60188,467.63745 -522.13058,464.11223 C -522.49618,461.67376 -523.17808,459.44215 -523.64568,459.15311 C -524.11338,458.86407 -526.29358,459.54461 -528.49048,460.66541 C -530.68748,461.78621 -534.25748,462.70323 -536.42378,462.70323 C -540.01008,462.70323 -540.55078,462.34234 -542.46368,458.67244 C -543.88698,455.9418 -544.56468,452.78801 -544.56468,448.89494 C -544.56468,445.23888 -545.14838,442.31487 -546.16918,440.85749 C -547.64458,438.75097 -547.63508,437.78808 -546.05038,428.88498 C -543.41818,414.09644 -543.21538,408.91748 -544.97338,401.39118 C -546.81348,393.51392 -546.96898,390.70323 -545.56468,390.70323 C -545.01468,390.70323 -544.55388,391.49073 -544.54088,392.45323 C -544.52778,393.41573 -543.47328,397.77984 -542.19748,402.15125 L -539.87788,410.09926 L -541.77508,416.42338 C -542.83528,419.95704 -543.53828,424.83015 -543.36848,427.46746 C -543.10498,431.56045 -542.67698,432.37247 -540.14658,433.58046 C -538.54158,434.34663 -533.28188,435.19852 -528.45828,435.47355 C -520.77318,435.91173 -519.24328,435.71117 -516.09298,433.85246 L -512.49788,431.73132 L -504.28128,434.10327 C -486.77048,439.15824 -481.48748,439.46853 -454.40998,437.03245 L -447.75538,436.43376 L -446.03118,439.76788 C -444.57068,442.59215 -444.49368,443.61819 -445.52768,446.47749 C -446.19898,448.334 -446.45138,450.15677 -446.08848,450.5281 C -445.72558,450.89942 -442.42178,452.16907 -438.74668,453.34954 L -432.06468,455.49584 L -438.06468,455.61485 C -441.36468,455.6803 -444.56078,456.06446 -445.16718,456.46854 C -445.77358,456.87262 -447.09298,459.67823 -448.09918,462.70323 L -449.92868,468.20323 L -451.37778,463.59629 C -452.67568,459.47002 -453.35348,458.76691 -457.87338,456.85727 C -460.64898,455.68462 -463.09998,454.90524 -463.32008,455.12531 C -463.54008,455.34538 -462.00568,456.69044 -459.91028,458.11433 L -456.10038,460.70323 L -459.68578,460.70323 C -461.65778,460.70323 -465.94058,460.42423 -469.20318,460.08323 L -475.13498,459.46322 L -474.75668,456.22236 C -474.42708,453.3992 -474.84468,452.69327 -477.99688,450.74512 C -479.98708,449.51511 -482.26038,448.75624 -483.04868,449.05874 C -483.83698,449.36125 -485.51308,451.76751 -486.77328,454.40599 C -489.53038,460.17841 -492.96278,462.14966 -498.59868,461.19748 C -503.13148,460.43166 -507.56468,455.94661 -507.56468,452.1265 C -507.56468,449.44272 -508.61328,449.13327 -511.88038,450.85293 C -514.66218,452.31716 -515.53018,453.6421 -515.54928,456.45323 C -515.56008,458.03146 -516.16178,458.70323 -517.56468,458.70323 C -520.02198,458.70323 -520.02568,458.88396 -517.66198,463.49307 C -513.34478,471.91129 -508.33828,474.21359 -492.21928,475.19279 C -479.48538,475.96639 -478.53438,476.81229 -487.66588,479.24259 C -494.14998,480.96839 -503.79918,481.00889 -508.43978,479.32999 z"
         style="fill:#000000" />
    </g>
  </g>
</svg>
