<svg xmlns="http://www.w3.org/2000/svg" xmlns:xlink="http://www.w3.org/1999/xlink" version="1.1" id="Your_Icon" x="0px" y="0px" width="100px" height="100px" viewBox="0 0 100 100" enable-background="new 0 0 100 100" xml:space="preserve">
<g>
	<path d="M90.737,95H55.234c-2.354,0-4.263-1.909-4.263-4.263c0-2.354,1.909-4.263,4.263-4.263h31.241v-72.95h-72.95v30.154   c0,2.354-1.909,4.263-4.263,4.263S5,46.032,5,43.679V9.262C5,6.908,6.909,5,9.263,5h81.475C93.091,5,95,6.908,95,9.262v81.475   C95,93.092,93.091,95,90.737,95z"/>
</g>
<g>
	<g>
		<path d="M76.211,28.048v15.601c0,2.355-1.907,4.263-4.263,4.263s-4.263-1.907-4.263-4.263v-5.307L49.879,56.148    c-0.831,0.831-1.918,1.247-3.016,1.247c-1.087,0-2.174-0.416-3.005-1.247c-1.673-1.662-1.673-4.369,0-6.031L61.654,32.31h-5.296    c-2.355,0-4.263-1.907-4.263-4.263c0-2.355,1.907-4.263,4.263-4.263h15.59C74.303,23.785,76.211,25.693,76.211,28.048z"/>
	</g>
</g>
<g>
	<path d="M38.568,95H9.263C6.909,95,5,93.092,5,90.738V61.433c0-2.354,1.909-4.263,4.263-4.263h29.305   c2.354,0,4.263,1.909,4.263,4.263v29.305C42.83,93.092,40.922,95,38.568,95z M13.525,86.475h20.78v-20.78h-20.78V86.475z"/>
</g>
</svg>